<svg width="45" height="51" viewBox="0 0 45 51" fill="none" xmlns="http://www.w3.org/2000/svg">
<path fill-rule="evenodd" clip-rule="evenodd" d="M22.0072 0L44.0144 12.9114V37.7576L22.0072 51L0 37.7576V12.9114L22.0072 0ZM42.3216 13.8809L22.0072 1.9627L1.69286 13.8809V36.8005L22.0072 49.0243L42.3216 36.8005V13.8809Z" fill="#00AAD3"/>
<path d="M11.9607 25.2408L11.6098 24.8952L11.2589 25.2408L9.3498 27.1214L8.9882 27.4776L9.3498 27.8338L16.9862 35.3562L17.337 35.7018L17.6879 35.3562L34.0516 19.2368L34.4132 18.8806L34.0516 18.5244L32.1425 16.6438L31.7916 16.2982L31.4407 16.6438L17.337 30.537L11.9607 25.2408Z" fill="#00AAD3" stroke="#00AAD3"/>
</svg>
