<svg width="40" height="38" viewBox="0 0 30 28" fill="none" xmlns="http://www.w3.org/2000/svg">
<path d="M11.2517 2.56795L11 2.42137L10.7483 2.56795L0.748344 8.39262L0.5 8.53727V8.82468V20.026V20.3097L0.743572 20.4552L10.7436 26.4292L11 26.5824L11.2564 26.4292L21.2564 20.4552L21.5 20.3097V20.026V8.82468V8.53727L21.2517 8.39262L11.2517 2.56795Z" stroke="#00AAD3"/>
<rect x="4.5" y="9.5" width="13" height="10" stroke="#00AAD3"/>
<line x1="7" y1="15.5" x2="8" y2="15.5" stroke="#00AAD3"/>
<line x1="7" y1="17.5" x2="8" y2="17.5" stroke="#00AAD3"/>
<line x1="8.37305" y1="15.5339" x2="14.1697" y2="15.5339" stroke="#00AAD3"/>
<line x1="8.37305" y1="17.5" x2="14.1697" y2="17.5" stroke="#00AAD3"/>
<path d="M11.875 12.9628C11.875 13.1372 11.8106 13.2872 11.6817 13.4128C11.5528 13.5362 11.3671 13.6128 11.1244 13.6426V14H10.8022V13.6521C10.6433 13.6436 10.4918 13.616 10.3479 13.5691C10.204 13.5223 10.0881 13.4649 10 13.3968L10.1772 13.0074C10.2588 13.067 10.3544 13.117 10.4639 13.1574C10.5735 13.1979 10.6862 13.2234 10.8022 13.234V12.7011C10.6497 12.6649 10.5208 12.6245 10.4156 12.5798C10.3104 12.5351 10.2223 12.4702 10.1514 12.3851C10.0805 12.2979 10.0451 12.183 10.0451 12.0404C10.0451 11.8638 10.1095 11.7128 10.2384 11.5872C10.3694 11.4596 10.5573 11.3819 10.8022 11.3543V11H11.1244V11.3479C11.3885 11.3691 11.6065 11.434 11.7784 11.5426L11.6173 11.9351C11.4562 11.8436 11.2919 11.7883 11.1244 11.7691V12.3117C11.2747 12.3457 11.4014 12.3851 11.5045 12.4298C11.6098 12.4723 11.6978 12.5372 11.7687 12.6245C11.8396 12.7096 11.875 12.8223 11.875 12.9628ZM10.5638 12.0149C10.5638 12.0681 10.5842 12.1117 10.625 12.1457C10.6658 12.1798 10.7249 12.2085 10.8022 12.2319V11.7787C10.7206 11.7979 10.6604 11.8287 10.6218 11.8713C10.5831 11.9117 10.5638 11.9596 10.5638 12.0149ZM11.1244 13.2213C11.2017 13.2043 11.2597 13.1766 11.2983 13.1383C11.337 13.1 11.3563 13.0543 11.3563 13.0011C11.3563 12.9479 11.3359 12.9043 11.2951 12.8702C11.2564 12.8362 11.1995 12.8064 11.1244 12.7809V13.2213Z" fill="#1AA8D0"/>
<rect x="19" y="5" width="7" height="7" fill="white"/>
<path d="M26.0598 4.8561C23.8846 2.61534 20.3006 2.56217 18.0598 4.73741C15.819 6.91265 15.7659 10.4966 17.9411 12.7374C20.1163 14.9782 23.7003 15.0313 25.9411 12.8561C28.1819 10.6809 28.235 7.09686 26.0598 4.8561ZM23.5648 11.2205L21.9886 9.59675L20.3648 11.173L19.5767 10.3611L21.2004 8.78488L19.6242 7.16114L20.4361 6.37301L22.0123 7.99675L23.6361 6.42049L24.4242 7.23236L22.8004 8.80862L24.3767 10.4324L23.5648 11.2205Z" fill="#E55429"/>
</svg>
