<svg width="87" height="100" viewBox="0 0 87 100" fill="none" xmlns="http://www.w3.org/2000/svg">
<path fill-rule="evenodd" clip-rule="evenodd" d="M43.1514 0L86.3028 25.3164V74.0344L43.1514 100L0 74.0344V25.3164L43.1514 0ZM82.9835 27.2174L43.1514 3.84843L3.31934 27.2174V72.1578L43.1514 96.1261L82.9835 72.1578V27.2174Z" fill="#00AAD3"/>
<path d="M52.2833 68.3026L49.8048 65.8242L48.9787 66.6503L52.2833 69.9549L59.3645 62.8736L58.5384 62.0475L52.2833 68.3026Z" fill="#00AAD3"/>
<path fill-rule="evenodd" clip-rule="evenodd" d="M48.9787 66.6504L49.8048 65.8242L52.2833 68.3027L58.5384 62.0475L59.3645 62.8737L52.2833 69.9549L48.9787 66.6504ZM52.2833 67.4681L58.5384 61.213L60.1991 62.8737L52.2833 70.7895L48.1442 66.6504L49.8048 64.9897L52.2833 67.4681Z" fill="#00AAD3"/>
<path fill-rule="evenodd" clip-rule="evenodd" d="M21.2438 23.1006H64.9115V76.21H21.2438V23.1006ZM23.0141 24.8709V74.4397H63.1412V24.8709H23.0141Z" fill="#00AAD3"/>
<path fill-rule="evenodd" clip-rule="evenodd" d="M33.0459 44.3444H30.0953V42.5741H33.0459V44.3444Z" fill="#00AAD3"/>
<path fill-rule="evenodd" clip-rule="evenodd" d="M33.0459 49.8677H30.0953V48.0974H33.0459V49.8677Z" fill="#00AAD3"/>
<path fill-rule="evenodd" clip-rule="evenodd" d="M33.0459 54.9662H30.0953V53.1959H33.0459V54.9662Z" fill="#00AAD3"/>
<path fill-rule="evenodd" clip-rule="evenodd" d="M57.8303 44.3444H35.4063V42.5741H57.8303V44.3444Z" fill="#00AAD3"/>
<path fill-rule="evenodd" clip-rule="evenodd" d="M57.8303 49.8677H35.4063V48.0974H57.8303V49.8677Z" fill="#00AAD3"/>
<path fill-rule="evenodd" clip-rule="evenodd" d="M57.8303 54.9662H35.4063V53.1959H57.8303V54.9662Z" fill="#00AAD3"/>
<path d="M34.2261 35.179C34.2261 35.7281 34.0233 36.2001 33.6177 36.5952C33.2121 36.9836 32.6274 37.2247 31.8636 37.3184V38.4434H30.8497V37.3486C30.3495 37.3218 29.8729 37.2347 29.4201 37.0874C28.9672 36.9401 28.6022 36.7593 28.325 36.545L28.8827 35.3196C29.1395 35.5071 29.4403 35.6645 29.7851 35.7917C30.1298 35.9189 30.4847 35.9993 30.8497 36.0327V34.3553C30.3698 34.2415 29.9642 34.1143 29.633 33.9737C29.3018 33.833 29.0246 33.6288 28.8016 33.361C28.5785 33.0864 28.467 32.7248 28.467 32.2762C28.467 31.7204 28.6697 31.2449 29.0753 30.8499C29.4876 30.4481 30.0791 30.2037 30.8497 30.1166V29.0017H31.8636V30.0965C32.695 30.1635 33.3811 30.3677 33.9219 30.7092L33.4149 31.9447C32.908 31.6568 32.3909 31.4827 31.8636 31.4224V33.1299C32.3368 33.2371 32.7356 33.361 33.06 33.5016C33.3913 33.6355 33.6684 33.8397 33.8915 34.1143C34.1145 34.3821 34.2261 34.737 34.2261 35.179ZM30.0994 32.1958C30.0994 32.3632 30.1636 32.5005 30.292 32.6076C30.4205 32.7148 30.6063 32.8052 30.8497 32.8788V31.4525C30.5928 31.5128 30.4036 31.6099 30.2819 31.7438C30.1602 31.871 30.0994 32.0217 30.0994 32.1958ZM31.8636 35.9926C32.107 35.939 32.2895 35.8519 32.4111 35.7314C32.5328 35.6109 32.5936 35.4669 32.5936 35.2995C32.5936 35.1321 32.5294 34.9948 32.401 34.8877C32.2793 34.7805 32.1002 34.6868 31.8636 34.6064V35.9926Z" fill="#1AA8D0"/>
</svg>
