<svg width="37" height="37" viewBox="0 0 27 27" fill="none" xmlns="http://www.w3.org/2000/svg">
<path d="M11.2517 1.56795L11 1.42137L10.7483 1.56795L0.748344 7.39262L0.5 7.53727V7.82468V19.026V19.3097L0.743572 19.4552L10.7436 25.4292L11 25.5824L11.2564 25.4292L21.2564 19.4552L21.5 19.3097V19.026V7.82468V7.53727L21.2517 7.39262L11.2517 1.56795Z" stroke="#00AAD3"/>
<rect x="4.5" y="8.5" width="13" height="10" stroke="#00AAD3"/>
<line x1="7" y1="14.5" x2="8" y2="14.5" stroke="#00AAD3"/>
<line x1="7" y1="16.5" x2="8" y2="16.5" stroke="#00AAD3"/>
<line x1="8.37305" y1="14.5339" x2="14.1697" y2="14.5339" stroke="#00AAD3"/>
<line x1="8.37305" y1="16.5" x2="14.1697" y2="16.5" stroke="#00AAD3"/>
<path d="M11.875 11.9628C11.875 12.1372 11.8106 12.2872 11.6817 12.4128C11.5528 12.5362 11.3671 12.6128 11.1244 12.6426V13H10.8022V12.6521C10.6433 12.6436 10.4918 12.616 10.3479 12.5691C10.204 12.5223 10.0881 12.4649 10 12.3968L10.1772 12.0074C10.2588 12.067 10.3544 12.117 10.4639 12.1574C10.5735 12.1979 10.6862 12.2234 10.8022 12.234V11.7011C10.6497 11.6649 10.5208 11.6245 10.4156 11.5798C10.3104 11.5351 10.2223 11.4702 10.1514 11.3851C10.0805 11.2979 10.0451 11.183 10.0451 11.0404C10.0451 10.8638 10.1095 10.7128 10.2384 10.5872C10.3694 10.4596 10.5573 10.3819 10.8022 10.3543V10H11.1244V10.3479C11.3885 10.3691 11.6065 10.434 11.7784 10.5426L11.6173 10.9351C11.4562 10.8436 11.2919 10.7883 11.1244 10.7691V11.3117C11.2747 11.3457 11.4014 11.3851 11.5045 11.4298C11.6098 11.4723 11.6978 11.5372 11.7687 11.6245C11.8396 11.7096 11.875 11.8223 11.875 11.9628ZM10.5638 11.0149C10.5638 11.0681 10.5842 11.1117 10.625 11.1457C10.6658 11.1798 10.7249 11.2085 10.8022 11.2319V10.7787C10.7206 10.7979 10.6604 10.8287 10.6218 10.8713C10.5831 10.9117 10.5638 10.9596 10.5638 11.0149ZM11.1244 12.2213C11.2017 12.2043 11.2597 12.1766 11.2983 12.1383C11.337 12.1 11.3563 12.0543 11.3563 12.0011C11.3563 11.9479 11.3359 11.9043 11.2951 11.8702C11.2564 11.8362 11.1995 11.8064 11.1244 11.7809V12.2213Z" fill="#1AA8D0"/>
<circle cx="21.5" cy="7.5" r="5.5" fill="#EBC100"/>
<rect x="21" y="4" width="1" height="5" fill="white"/>
<rect x="21" y="10" width="1" height="2" fill="white"/>
</svg>
