<svg width="87" height="100" viewBox="0 0 87 100" fill="none" xmlns="http://www.w3.org/2000/svg">
<path fill-rule="evenodd" clip-rule="evenodd" d="M43.1514 0L86.3028 25.3164V74.0344L43.1514 100L0 74.0344V25.3164L43.1514 0ZM82.9835 27.2174L43.1514 3.84843L3.31934 27.2174V72.1578L43.1514 96.1261L82.9835 72.1578V27.2174Z" fill="#00AAD3"/>
<path d="M25.9907 66.2988C26.0779 64.3812 25.9907 64.2069 24.0732 64.2941C23.3759 64.2941 22.8529 64.1197 22.2428 63.6839C20.1509 62.2022 18.1462 60.5461 16.1415 58.9772C14.0496 57.234 14.2239 55.4036 15.88 53.486C16.2286 53.0502 16.5773 52.6144 17.1002 52.3529C17.4489 52.1786 17.8847 52.0915 18.1462 52.3529C18.4948 52.7016 18.4077 53.0502 18.1462 53.486C17.6232 54.1833 17.1874 54.8806 16.5773 55.4908C16.0543 56.0137 16.2286 57.0597 16.9259 57.4955C18.8435 58.8901 20.6739 60.3718 22.5914 61.8535C23.6373 62.7252 24.4218 62.638 25.2934 61.6792C26.7752 60.1103 27.9954 58.2799 29.3028 56.6239C30.8717 54.532 32.4407 52.4401 34.0967 50.4354C34.4454 49.9996 34.7069 49.4766 34.8812 49.0408C35.2298 48.082 34.271 47.6462 33.7481 47.2976C32.2663 46.3388 30.9589 45.2057 29.5643 44.1598C28.9542 43.7239 28.4312 43.1138 27.5596 43.0267C25.9907 42.9395 25.5549 44.2469 24.7704 45.1185C24.5961 45.38 24.509 45.6415 24.2475 45.903C23.8988 46.2516 23.5502 46.8618 23.0272 46.5131C22.4171 46.0773 22.5914 45.2929 22.8529 44.9442C23.5502 43.9854 24.3346 43.0267 25.1191 42.155C26.165 41.0219 27.8211 40.9348 29.1285 41.8936C31.4819 43.5496 33.8352 45.1185 35.84 47.2104C35.9271 47.2976 36.0143 47.2976 36.0143 47.3847C36.3629 49.128 37.5832 49.6509 39.0649 49.9124C40.8082 50.1739 42.4642 50.784 44.2946 49.8253C45.0791 49.3894 46.0379 48.9536 47.0838 48.9536C47.9554 48.9536 48.827 48.9536 49.6986 48.9536C50.1344 48.9536 50.6574 48.9536 50.7446 48.4307C51.0932 46.6874 52.4878 45.8158 53.7952 44.857C55.1027 43.8983 56.4101 42.9395 57.7175 41.8936C59.3736 40.499 60.5067 40.3246 62.1627 41.5449C62.7729 41.9807 63.1215 42.9395 63.7316 43.4625C65.0391 44.6827 66.085 46.2516 67.1309 47.7334C68.264 49.3894 69.6586 50.784 70.7917 52.4401C71.4019 53.3117 72.0992 54.1833 72.6221 55.0549C72.8836 55.5779 72.8836 56.188 72.7093 56.711C72.2735 57.9313 71.489 58.9772 70.3559 59.5002C69.3971 59.936 68.787 60.7204 68.0026 61.2434C66.9566 61.9407 65.9107 62.7252 64.9519 63.5968C64.2546 64.2069 63.0344 64.1197 62.2499 63.6839C61.3783 63.2481 60.8553 63.6839 60.5938 64.1197C59.8965 65.0785 59.0249 65.7758 58.1533 66.5603C57.6303 66.9961 57.7175 67.4319 57.979 67.9549C58.6763 69.1751 58.502 70.9183 57.5432 71.79C57.0202 71.8771 56.5844 71.8771 56.2358 71.8771C55.277 71.9643 54.5797 72.4001 53.9696 73.1845C53.3594 73.8818 52.6621 74.6663 51.6162 74.6663C51.1804 74.6663 50.9189 75.0149 50.7446 75.3636C50.1344 76.4967 49.35 77.5426 47.7811 77.3683C46.9966 77.2811 46.5608 77.8041 46.125 78.3271C44.6433 79.8088 43.1615 79.9831 41.6798 78.5014C40.8082 77.6298 40.0237 77.1068 38.8034 77.9784C38.1062 78.5014 36.4501 77.7169 35.6656 76.5838C35.2298 75.9737 34.794 75.4507 34.0096 75.3636C33.4866 75.2764 33.1379 74.8406 32.8765 74.4048C32.2663 73.5332 31.7434 72.7487 30.6103 72.4873C30.0873 72.3129 29.7387 71.8771 29.5643 71.4413C29.3028 70.5697 28.6927 70.2211 27.9083 69.8724C26.688 69.3494 25.9035 67.9549 25.9907 66.2988ZM37.4089 51.307C36.6244 51.307 35.6656 50.8712 35.2298 51.5685C34.5325 52.6144 33.5738 53.3989 32.8765 54.532C32.0048 56.0137 30.7846 57.1468 29.8258 58.6286C29.0414 59.8488 27.9083 60.8076 27.1238 62.0279C26.7752 62.638 26.4265 63.161 27.0366 63.5096C27.5596 63.9454 28.2569 63.7711 28.7799 63.161C29.4772 62.3765 30.1745 61.7664 30.9589 61.0691C31.9177 60.1975 33.0508 60.1103 34.1839 60.3718C34.794 60.459 35.4041 60.8948 35.5785 61.5921C35.9271 62.638 36.3629 63.6839 37.3217 64.2941C37.6703 64.5556 38.1933 64.9042 38.2805 65.34C38.3676 66.3859 39.1521 66.7346 39.9365 67.0832C40.8082 67.519 41.8541 69.088 41.5055 69.6981C40.9825 70.5697 41.5926 71.1798 42.0284 71.7028C42.4642 72.3129 42.9 74.492 42.3771 75.0149C41.4183 75.8866 42.1156 76.4095 42.6386 77.0197C42.9872 77.4555 44.5561 77.6298 44.9919 77.194C45.5149 76.7582 45.4277 76.148 45.2534 75.6251C45.0791 75.2764 44.8176 74.9278 44.4689 74.6663C44.1203 74.3176 43.8588 74.1433 44.3818 73.7075C44.8176 73.3589 44.9919 73.0974 45.5149 73.6204C45.8635 73.969 46.2993 74.3176 46.7351 74.7535C47.2581 75.2764 48.6527 75.4507 49.0885 75.0149C49.6115 74.492 49.5243 73.7947 48.7399 72.9231C48.5655 72.7487 48.4784 72.5744 48.3041 72.4873C47.6068 71.79 46.9095 71.0927 46.2122 70.3954C45.7764 69.8724 45.7764 69.1751 46.2122 68.7393C46.5608 68.3907 46.9966 68.9136 47.2581 69.1751C48.2169 70.0467 49.1757 71.0055 50.0473 72.0514C50.5703 72.5744 52.052 72.7487 52.575 72.4001C53.0979 72.0514 52.9236 71.0055 52.2263 70.3082C50.9189 69.0008 49.6986 67.6062 48.3912 66.3859C47.9554 66.0373 47.8682 65.5143 48.2169 65.2528C48.5655 64.9042 49.0014 64.9914 49.4372 65.34C50.1344 66.0373 50.8317 66.6474 51.529 67.3447C52.575 68.4778 53.6209 69.5238 54.9283 70.3082C55.7999 70.8312 56.1486 70.0467 56.6716 69.6109C57.1074 69.2623 57.1074 68.8265 56.6716 68.4778C55.6256 67.6062 54.754 66.6474 53.7081 65.7758C51.4419 63.8583 49.2628 62.0279 47.2581 59.8488C46.3865 58.8901 44.6433 58.4542 43.8588 59.0644C42.4642 60.1103 40.9825 60.3718 39.3264 60.1975C38.1062 60.0232 36.1886 57.757 36.6244 56.711C36.9731 55.8394 37.1474 54.7063 38.019 54.0962C38.542 53.7475 38.8906 53.2246 39.4136 52.8759C39.7622 52.6144 39.7622 52.3529 39.7622 52.0043C39.6751 51.5685 39.3264 51.4813 38.9778 51.4813C38.4548 51.307 37.9318 51.307 37.4089 51.307ZM63.4702 61.7664C63.6445 61.7664 63.9931 61.7664 64.2546 61.5921C66.2593 60.0232 68.3512 58.7157 70.2688 56.9725C70.966 56.2752 70.8789 55.5779 70.4431 54.8806C69.3971 53.1374 67.8282 51.7428 66.6951 49.9996C65.562 48.3435 64.2546 46.8618 62.9472 45.2929C62.2499 44.5084 61.8141 43.4625 60.9425 42.7652C60.2452 42.2422 59.6351 42.155 59.0249 42.5908C57.0202 44.0726 55.1027 45.5543 53.0979 47.1232C52.052 47.9949 51.9648 48.7793 52.8365 49.8253C54.4925 51.83 56.0614 53.9218 57.7175 56.0137C58.7634 57.3211 59.6351 58.8029 60.8553 59.936C61.7269 60.6333 61.9884 61.7664 63.4702 61.7664ZM48.6527 50.5225C47.2581 50.5225 45.7764 50.3482 44.5561 51.3942C43.8588 52.0043 42.9 52.2658 42.2027 52.7887C41.0696 53.7475 39.5879 54.2705 38.6291 55.4908C38.1933 56.1009 38.019 56.711 38.2805 57.3211C38.542 57.9313 39.1521 58.2799 39.9365 58.3671C41.3311 58.4542 42.5514 57.8441 43.5973 57.1468C45.1662 56.188 45.3406 56.188 46.7351 57.3211C47.0838 57.5826 47.2581 57.9313 47.6068 58.1928C49.7858 59.8488 51.7905 61.6792 53.7081 63.5968C56.4972 66.2988 56.5844 65.1657 58.5891 63.5968C58.5891 63.5968 58.6763 63.5968 58.6763 63.5096C59.5479 62.4637 60.2452 61.2434 58.9378 59.936C58.502 59.413 57.8918 58.9772 57.6303 58.4542C56.8459 56.711 55.1898 55.6651 54.3182 54.009C53.7952 53.1374 52.6621 52.5273 52.3135 51.6556C51.7905 50.5225 51.0932 50.5225 50.1344 50.5225C49.6986 50.5225 49.1757 50.5225 48.6527 50.5225ZM28.9542 67.9549C29.39 67.8677 29.8258 67.8677 30.2616 67.4319C31.3076 66.3859 32.3535 65.4272 33.4866 64.4684C34.271 63.8583 34.6197 62.9866 34.1839 62.4637C33.8352 62.0279 32.4407 62.0279 31.9177 62.4637C30.6103 63.5968 29.3028 64.817 28.0826 66.0373C27.8211 66.2988 27.211 66.4731 27.6468 66.9961C27.9083 67.519 28.1697 68.2163 28.9542 67.9549ZM35.5785 65.6887C35.2298 65.6887 34.794 65.6015 34.4454 65.863C33.2251 66.9089 32.092 68.042 30.9589 69.1751C30.6103 69.5238 30.6103 70.2211 30.9589 70.3954C31.3076 70.5697 31.569 71.267 32.3535 70.9183C34.0967 70.1339 35.0555 68.565 36.4501 67.519C36.7987 67.2576 37.2345 66.9089 36.8859 66.2988C36.6244 65.6887 36.1014 65.6887 35.5785 65.6887ZM39.7622 69.6981C39.8494 69.088 39.3264 68.8265 38.8906 68.565C38.542 68.3035 38.1062 68.3907 37.6703 68.7393C36.6244 69.6109 35.7528 70.6569 34.5325 71.4413C33.9224 71.8771 33.8352 72.9231 34.3582 73.5332C34.8812 74.1433 35.4042 73.7947 35.9271 73.446C37.3217 72.6616 38.1933 71.267 39.5007 70.3954C39.7622 70.3954 39.7622 70.0467 39.7622 69.6981ZM38.1062 76.148C38.8034 76.148 40.8953 74.6663 41.0696 74.0562C41.1568 73.7947 41.244 73.3589 40.8953 73.3589C40.4595 73.2717 40.3724 72.5744 39.8494 72.8359C38.9778 73.3589 38.019 73.7075 37.4089 74.6663C37.2345 75.0149 36.8859 75.2764 37.0602 75.6251C37.3217 76.148 37.7575 76.0609 38.1062 76.148Z" fill="#00AAD3"/>
<path d="M54.8412 33.0031C54.8412 33.3518 54.8412 33.6133 54.8412 33.9619C55.0155 37.6227 53.0108 40.1504 50.396 42.5037C49.6115 43.201 48.6527 43.724 47.7811 44.247C47.3453 44.5084 46.7352 44.5084 46.2122 44.6828C43.7717 45.3801 41.4183 45.3801 38.9778 44.6828C37.6704 44.3341 36.6244 43.5497 35.4913 42.9395C34.4454 42.4166 33.661 41.4578 32.9637 40.499C32.1792 39.3659 31.3948 38.2328 31.1333 36.9254C30.7846 35.3565 30.0002 33.7876 30.2617 32.2187C30.8718 29.0809 31.9177 26.0302 34.3582 23.8512C35.7528 22.5437 37.3217 21.6721 39.065 20.9748C40.721 20.3647 42.2028 20.539 43.8589 20.4519C45.4278 20.3647 46.8223 21.1492 48.2169 21.7593C50.1345 22.5437 51.5291 24.0255 52.6622 25.6816C54.3182 27.7734 55.1898 30.214 54.8412 33.0031ZM42.9872 22.3694C39.3265 22.2823 37.4961 23.1539 35.0555 25.3329C33.5738 26.6403 32.4407 28.3836 32.1792 30.3011C31.8306 32.916 31.7434 35.5308 33.2251 37.9713C34.4454 39.8889 35.9272 41.4578 37.8447 42.4166C39.8494 43.3753 41.9413 43.8112 44.2075 43.3753C46.5609 42.9395 48.4784 42.0679 50.1345 40.4119C52.4878 37.9713 53.6209 35.095 53.3595 31.7829C53.1851 29.9525 52.2264 28.3836 51.3547 26.8147C50.4831 25.1586 48.9142 24.1126 47.3453 23.3282C45.9507 22.4566 44.2947 22.1079 42.9872 22.3694Z" fill="#00AAD3"/>
<path fill-rule="evenodd" clip-rule="evenodd" d="M50.5291 42.6517L50.5282 42.6525C49.8508 43.2546 49.0458 43.7301 48.2934 44.1744C48.1546 44.2563 48.0176 44.3372 47.8835 44.4177C47.6336 44.5676 47.3421 44.638 47.0683 44.6928C47.0055 44.7053 46.9438 44.7171 46.8831 44.7286C46.6686 44.7694 46.4668 44.8078 46.2751 44.8716L46.2669 44.8744C43.7912 45.5817 41.4004 45.5817 38.9248 44.8747C38.2488 44.6942 37.6446 44.4023 37.0721 44.0831C36.8165 43.9405 36.5654 43.7914 36.3174 43.6442C36.2878 43.6266 36.2582 43.6091 36.2286 43.5915C35.9516 43.4272 35.6778 43.2662 35.3994 43.1162C34.3076 42.5693 33.4996 41.5746 32.8025 40.6161L32.7998 40.6124L32.7877 40.5948C32.0123 39.4748 31.2083 38.3135 30.9383 36.9665C30.853 36.5828 30.7406 36.1973 30.6225 35.8062C30.6018 35.7377 30.5809 35.669 30.56 35.6001C30.4618 35.277 30.3623 34.9497 30.276 34.6228C30.0666 33.8293 29.9274 33.0121 30.0651 32.1859L30.066 32.1806C30.6786 29.0302 31.7352 25.9271 34.2237 23.7042C35.6411 22.3758 37.2331 21.493 38.9909 20.7899L38.996 20.7878C40.2749 20.3167 41.4667 20.3006 42.6701 20.2843C43.0604 20.2791 43.4519 20.2738 43.848 20.2529C44.6692 20.2074 45.4384 20.3904 46.1712 20.6569C46.6752 20.8401 47.1735 21.0677 47.6598 21.2899C47.8738 21.3876 48.0856 21.4844 48.2945 21.5758C50.26 22.3806 51.6802 23.8951 52.8225 25.5633C54.501 27.6857 55.3922 30.1725 55.0403 33.0154V33.9571C55.2171 37.7084 53.1544 40.2889 50.5291 42.6517ZM54.8411 33.9618V33.0031C55.1898 30.2139 54.3182 27.7734 52.6621 25.6815C51.529 24.0254 50.1344 22.5437 48.2169 21.7592C48.0009 21.6647 47.7849 21.5661 47.5683 21.4671C46.3861 20.927 45.1847 20.3781 43.8588 20.4518C43.4467 20.4735 43.0453 20.479 42.6494 20.4844C41.4544 20.5008 40.3088 20.5165 39.0649 20.9748C37.3217 21.6721 35.7528 22.5437 34.3582 23.8511C31.9176 26.0301 30.8717 29.0808 30.2616 32.2186C30.077 33.3261 30.4136 34.4335 30.7502 35.541C30.8904 36.0024 31.0307 36.4639 31.1332 36.9253C31.3947 38.2328 32.1791 39.3659 32.9636 40.499C33.6609 41.4577 34.4453 42.4165 35.4913 42.9395C35.8048 43.1083 36.1116 43.2904 36.4191 43.473C37.2231 43.9503 38.032 44.4305 38.9777 44.6827C41.4183 45.38 43.7716 45.38 46.2121 44.6827C46.4178 44.6142 46.6369 44.5726 46.8535 44.5314C47.1879 44.468 47.5166 44.4056 47.781 44.2469C47.9175 44.165 48.0562 44.0831 48.1959 44.0005C48.9487 43.5559 49.7343 43.0918 50.3959 42.5037C53.0107 40.1503 55.0155 37.6226 54.8411 33.9618ZM43.0045 22.569L42.9824 22.5685C41.1688 22.5253 39.8244 22.72 38.6365 23.1866C37.4477 23.6537 36.4004 24.399 35.1881 25.4814L35.1872 25.4822C33.7308 26.7672 32.6299 28.4699 32.3765 30.3277C32.0291 32.9334 31.9511 35.4879 33.3942 37.8661C34.6016 39.763 36.0583 41.3002 37.9322 42.2376C39.9074 43.182 41.9552 43.6056 44.1698 43.1797L44.1712 43.1794C46.4928 42.7495 48.3706 41.8935 49.9923 40.2722C52.3085 37.8696 53.417 35.0491 53.161 31.8001C53.0054 30.1712 52.2114 28.7532 51.4035 27.3104C51.3291 27.1776 51.2547 27.0447 51.1806 26.9113L51.1784 26.9074C50.3365 25.3077 48.8142 24.2853 47.2562 23.5063L47.2477 23.502L47.2397 23.497C45.8797 22.6471 44.2749 22.3149 43.0262 22.5647L43.0045 22.569ZM53.3594 31.7828C53.6209 35.0949 52.4878 37.9713 50.1344 40.4118C48.4783 42.0679 46.5608 42.9395 44.2074 43.3753C41.9412 43.8111 39.8493 43.3753 37.8446 42.4165C35.9271 41.4577 34.4453 39.8888 33.2251 37.9713C31.7433 35.5308 31.8305 32.9159 32.1791 30.3011C32.4406 28.3835 33.5737 26.6403 35.0555 25.3329C37.496 23.1538 39.3264 22.2822 42.9872 22.3694C44.2946 22.1079 45.9507 22.4565 47.3452 23.3281C48.9141 24.1126 50.4831 25.1585 51.3547 26.8146C51.4293 26.9489 51.5045 27.0832 51.5799 27.2177C52.3847 28.6541 53.2 30.1091 53.3594 31.7828Z" fill="#00AAD3"/>
<path d="M39.7622 35.7923C39.7622 35.4436 39.675 35.095 40.1109 35.0078C40.4595 34.9206 40.721 35.0078 40.9825 35.2693C41.5926 35.8794 42.2899 36.4024 43.2487 35.7923C43.7716 35.4436 44.2946 35.0078 44.2946 34.4848C44.2946 34.049 43.6845 33.5261 43.0743 33.5261C42.2899 33.4389 41.5926 33.0903 40.8953 32.7416C40.198 32.393 39.7622 31.9572 39.675 31.1727C39.5879 29.691 39.675 28.3835 41.4183 27.9477C41.7669 27.8606 41.7669 27.4248 41.7669 27.1633C41.7669 26.9018 41.7669 26.5531 41.8541 26.3788C42.0284 26.0302 42.2899 25.5072 42.6385 25.5944C43.0743 25.5944 42.9 26.1173 42.9 26.466C42.9 27.3376 43.423 27.9477 44.2074 28.2092C44.6433 28.3835 44.9919 28.5579 44.9919 29.0808C44.9919 29.4295 45.0791 29.8653 44.8176 30.0396C44.4689 30.2139 44.1203 30.1268 43.7716 29.8653C43.0743 29.2551 42.2027 29.4295 41.5054 30.0396C40.721 30.7369 41.4183 31.4342 41.7669 31.5213C42.5514 31.7828 43.1615 32.3058 43.946 32.393C45.1662 32.4801 45.5149 33.0031 45.6892 34.2234C45.8635 35.9666 45.1662 37.0997 43.5973 37.797C42.9 38.1456 42.9 38.7558 42.9 39.3659C42.9 39.7145 42.9872 40.2375 42.6385 40.2375C42.2027 40.2375 41.7669 39.8017 41.7669 39.3659C41.8541 37.9713 41.1568 37.3612 40.0237 36.9254C39.675 36.6639 39.8494 36.1409 39.7622 35.7923Z" fill="#00AAD3"/>
<path fill-rule="evenodd" clip-rule="evenodd" d="M39.5631 35.8168V35.7923C39.5631 35.7417 39.5615 35.7001 39.5598 35.6557C39.5584 35.6203 39.557 35.5831 39.5563 35.5381C39.5549 35.4513 39.5571 35.3525 39.5791 35.2572C39.6018 35.1586 39.6472 35.0574 39.7355 34.9737C39.8218 34.8918 39.9342 34.8407 40.0671 34.8135C40.2675 34.7641 40.4563 34.7616 40.6379 34.8175C40.8195 34.8733 40.9772 34.9824 41.1233 35.1285C41.4264 35.4316 41.7263 35.6859 42.0511 35.8006C42.3592 35.9093 42.7091 35.899 43.14 35.6254C43.3968 35.4541 43.641 35.2694 43.8197 35.0707C43.9995 34.871 44.0955 34.677 44.0955 34.4849C44.0955 34.3531 43.995 34.1644 43.788 33.9968C43.5873 33.8344 43.3252 33.7252 43.0744 33.7252H43.0633L43.0524 33.724C42.2325 33.6329 41.5082 33.2708 40.8207 32.927L40.8063 32.9198C40.4442 32.7387 40.1342 32.5275 39.9029 32.2474C39.669 31.9643 39.5246 31.6219 39.4771 31.1947L39.4766 31.1896L39.4763 31.1844C39.4328 30.445 39.4282 29.7061 39.6756 29.0934C39.9313 28.4602 40.4449 27.9858 41.37 27.7545C41.4498 27.7346 41.4993 27.68 41.5319 27.5662C41.5665 27.445 41.5678 27.2991 41.5678 27.1633V27.16C41.5678 27.0312 41.5678 26.8724 41.5793 26.7231C41.5904 26.5791 41.6137 26.4143 41.676 26.2898L41.6801 26.2815C41.7648 26.1122 41.8814 25.8788 42.0254 25.6988C42.1607 25.5297 42.3775 25.3379 42.6624 25.3956C42.8039 25.4004 42.9293 25.4486 43.0169 25.5548C43.1015 25.6574 43.1251 25.7843 43.1315 25.887C43.1381 25.9922 43.1281 26.1052 43.1187 26.202C43.1175 26.2143 43.1163 26.2264 43.1151 26.2382C43.1065 26.3258 43.0992 26.4 43.0992 26.466C43.0992 27.2402 43.5557 27.782 44.2705 28.0203L44.276 28.0221L44.2814 28.0243C44.4968 28.1104 44.7261 28.2091 44.8982 28.368C45.0827 28.5383 45.1911 28.7666 45.1911 29.0808C45.1911 29.1447 45.1942 29.2111 45.1976 29.2836C45.1986 29.3034 45.1995 29.3236 45.2004 29.3444C45.2045 29.4377 45.2078 29.5394 45.2016 29.638C45.1897 29.8278 45.1399 30.0641 44.9281 30.2053L44.9178 30.2122L44.9067 30.2178C44.466 30.4381 44.0355 30.3122 43.6522 30.0246L43.6462 30.0201L43.6405 30.0152C43.3338 29.7468 42.9971 29.6554 42.6606 29.6928C42.3187 29.7308 41.9634 29.9038 41.6372 30.189C41.4649 30.3423 41.388 30.4827 41.36 30.5995C41.3322 30.7158 41.3485 30.8265 41.3936 30.9291C41.4396 31.0336 41.515 31.1278 41.5991 31.2006C41.6854 31.2754 41.767 31.3161 41.8153 31.3282L41.8227 31.33L41.8299 31.3324C42.16 31.4424 42.4631 31.5979 42.7448 31.7423C42.8129 31.7773 42.8798 31.8116 42.9455 31.8444C43.2894 32.0163 43.6105 32.1546 43.9642 32.1946C44.5964 32.2403 45.0485 32.402 45.3587 32.751C45.6619 33.0921 45.7984 33.5796 45.8864 34.1952L45.8876 34.2035L45.8874 34.2036C45.9776 35.1059 45.8439 35.8702 45.4683 36.5039C45.0937 37.1361 44.4912 37.6169 43.6825 37.9771C43.386 38.1264 43.2479 38.3222 43.1769 38.5441C43.1009 38.7814 43.0992 39.0538 43.0992 39.3659C43.0992 39.4191 43.1013 39.4736 43.1035 39.5334C43.1048 39.5681 43.1062 39.6046 43.1073 39.6437C43.1101 39.7434 43.1106 39.8541 43.0977 39.9572C43.0852 40.0569 43.0576 40.1742 42.9858 40.2699C42.905 40.3776 42.7844 40.4367 42.6386 40.4367C42.3559 40.4367 42.0899 40.2973 41.8985 40.106C41.7071 39.9146 41.5678 39.6486 41.5678 39.3659V39.3597L41.5682 39.3535C41.6094 38.6935 41.4648 38.2447 41.1974 37.9105C40.925 37.57 40.5064 37.3244 39.9522 37.1113L39.9264 37.1013L39.9042 37.0847C39.6561 36.8986 39.6077 36.6237 39.596 36.402C39.5921 36.3279 39.5921 36.2478 39.5921 36.1755C39.5921 36.1423 39.5921 36.1108 39.5917 36.0823C39.5904 35.9826 39.5849 35.904 39.569 35.8406L39.5631 35.8168ZM43.5973 37.797C45.1662 37.0997 45.8635 35.9666 45.6892 34.2234C45.5149 33.0031 45.1662 32.4801 43.946 32.393C43.4757 32.3407 43.0681 32.1318 42.648 31.9166C42.3673 31.7728 42.0811 31.6261 41.767 31.5214C41.4183 31.4342 40.721 30.7369 41.5055 30.0396C42.2028 29.4295 43.0744 29.2552 43.7717 29.8653C44.1203 30.1268 44.469 30.2139 44.8176 30.0396C45.0273 29.8998 45.0128 29.5919 44.9988 29.2955C44.9953 29.2224 44.9919 29.1499 44.9919 29.0808C44.9919 28.5579 44.6433 28.3836 44.2075 28.2092C43.423 27.9477 42.9001 27.3376 42.9001 26.466C42.9001 26.3895 42.9085 26.3045 42.917 26.2185C42.9472 25.9129 42.9787 25.5944 42.6386 25.5944C42.2899 25.5072 42.0284 26.0302 41.8541 26.3788L41.8541 26.3788C41.767 26.5532 41.767 26.9018 41.767 27.1633C41.767 27.4248 41.767 27.8606 41.4183 27.9477C39.6751 28.3836 39.5879 29.691 39.6751 31.1727C39.7622 31.9572 40.198 32.393 40.8953 32.7416C41.5926 33.0903 42.2899 33.4389 43.0744 33.5261C43.6845 33.5261 44.2946 34.0491 44.2946 34.4849C44.2946 35.0078 43.7717 35.4436 43.2487 35.7923C42.2899 36.4024 41.5926 35.8794 40.9825 35.2693C40.721 35.0078 40.4595 34.9207 40.1109 35.0078C39.7383 35.0823 39.748 35.348 39.7586 35.6413C39.7604 35.6911 39.7622 35.7417 39.7622 35.7923C39.7913 35.9085 39.7913 36.0441 39.7913 36.1829C39.7913 36.4605 39.7913 36.7511 40.0237 36.9254C41.1568 37.3612 41.8541 37.9713 41.767 39.3659C41.767 39.8017 42.2028 40.2375 42.6386 40.2375C42.9306 40.2375 42.9169 39.8705 42.9047 39.5464C42.9023 39.4836 42.9001 39.4225 42.9001 39.3659C42.9001 38.7558 42.9001 38.1456 43.5973 37.797Z" fill="#00AAD3"/>
</svg>
