<svg width="32" height="37" viewBox="0 0 22 27" fill="none" xmlns="http://www.w3.org/2000/svg">
<path d="M11.2517 1.56795L11 1.42137L10.7483 1.56795L0.748344 7.39262L0.5 7.53727V7.82468V19.026V19.3097L0.743572 19.4552L10.7436 25.4292L11 25.5824L11.2564 25.4292L21.2564 19.4552L21.5 19.3097V19.026V7.82468V7.53727L21.2517 7.39262L11.2517 1.56795Z" stroke="#C4C4C4"/>
<path d="M5 9.5H4.5V10V17.1111V18V18.7084L5.1675 18.4711L7.58624 17.6111H17H17.5V17.1111V10V9.5H17H5Z" stroke="#C4C4C4"/>
<line x1="8.37305" y1="12.5339" x2="14.1697" y2="12.5339" stroke="#C4C4C4"/>
<line x1="8.37305" y1="14.5" x2="14.1697" y2="14.5" stroke="#C4C4C4"/>
</svg>
