<svg width="32" height="37" viewBox="0 0 22 27" fill="none" xmlns="http://www.w3.org/2000/svg">
<path d="M11.2517 1.56795L11 1.42137L10.7483 1.56795L0.748344 7.39262L0.5 7.53727V7.82468V19.026V19.3097L0.743572 19.4552L10.7436 25.4292L11 25.5824L11.2564 25.4292L21.2564 19.4552L21.5 19.3097V19.026V7.82468V7.53727L21.2517 7.39262L11.2517 1.56795Z" stroke="#00AAD3"/>
<path d="M12.7003 11.3004L11.4722 7.83561C11.3144 7.39047 10.6853 7.3911 10.5278 7.83561L9.29966 11.3004H5.29697C4.80118 11.3004 4.60656 11.9435 5.01926 12.2184L8.21893 14.3494L7.00302 17.7797C6.84208 18.2338 7.35207 18.6311 7.75295 18.3641L11 16.2016L14.2471 18.3641C14.6482 18.6312 15.1578 18.2335 14.997 17.7797L13.7811 14.3494L16.9807 12.2184C17.3932 11.9437 17.1991 11.3004 16.703 11.3004H12.7003Z" stroke="#00AAD3"/>
</svg>
