<svg width="29" height="27" viewBox="0 0 29 27" fill="none" xmlns="http://www.w3.org/2000/svg">
<path d="M11.2517 1.56795L11 1.42137L10.7483 1.56795L0.748344 7.39262L0.5 7.53727V7.82468V19.026V19.3097L0.743572 19.4552L10.7436 25.4292L11 25.5824L11.2564 25.4292L21.2564 19.4552L21.5 19.3097V19.026V7.82468V7.53727L21.2517 7.39262L11.2517 1.56795Z" stroke="#00AAD3"/>
<circle cx="23" cy="8" r="6" fill="#64C97A"/>
<path d="M21.5455 9.74627L19.6364 7.86567L19 8.49254L21.5455 11L27 5.62687L26.3636 5L21.5455 9.74627Z" fill="white"/>
<path d="M7.94572 18.1133C7.94567 18.1135 7.94562 18.1137 7.94556 18.1138L7.47641 17.9475L7.94556 18.1138L7.94572 18.1133ZM14.8014 17.5318L14.8009 17.5315C14.8011 17.5316 14.8013 17.5317 14.8014 17.5318L14.8014 17.5318ZM14.997 17.7798L14.997 17.7797L13.7811 14.3494L16.9807 12.2184C16.9807 12.2184 16.9807 12.2184 16.9807 12.2184C17.3933 11.9436 17.199 11.3004 16.703 11.3004H12.7003L11.4722 7.83562C11.3144 7.39047 10.6853 7.3911 10.5278 7.83562L9.29966 11.3004H5.29697C4.80116 11.3004 4.60659 11.9435 5.01924 12.2184L5.01926 12.2184L8.21893 14.3494L7.00302 17.7797C6.8422 18.2334 7.35175 18.6313 7.75295 18.3641C7.75297 18.3641 7.753 18.364 7.75302 18.364L11 16.2016L14.247 18.364C14.6489 18.6318 15.1575 18.2326 14.997 17.7798ZM10.7234 16.0173L10.7238 16.0176C10.7236 16.0175 10.7235 16.0174 10.7233 16.0173L10.7234 16.0173ZM13.1803 14.1488L13.1808 14.1496L13.1803 14.1488Z" stroke="#00AAD3"/>
</svg>
